<svg xmlns="http://www.w3.org/2000/svg" width="320" height="568" viewBox="0 0 320 568" role="img" aria-label="How Sankkalp works preview">
  <defs>
    <linearGradient id="bg" x1="0" y1="0" x2="1" y2="1">
      <stop offset="0" stop-color="#fffaf1"/>
      <stop offset=".55" stop-color="#f2dfc3"/>
      <stop offset="1" stop-color="#d8a47b"/>
    </linearGradient>
    <radialGradient id="glow" cx="50%" cy="42%" r="55%">
      <stop offset="0" stop-color="#fff3c4"/>
      <stop offset=".48" stop-color="#c77952"/>
      <stop offset="1" stop-color="#6f351f"/>
    </radialGradient>
    <filter id="shadow" x="-30%" y="-30%" width="160%" height="160%">
      <feDropShadow dx="0" dy="12" stdDeviation="12" flood-color="#6f351f" flood-opacity=".18"/>
    </filter>
  </defs>
  <rect width="320" height="568" rx="24" fill="url(#bg)"/>
  <g opacity=".38" fill="none" stroke="#b5654a" stroke-width="1.2">
    <circle cx="160" cy="238" r="98" stroke-dasharray="4 10"/>
    <circle cx="160" cy="238" r="66" opacity=".55"/>
    <path d="M70 270c44-73 124-93 196-44"/>
    <path d="M54 324c70-92 174-112 246-18" opacity=".45"/>
  </g>
  <g filter="url(#shadow)">
    <circle cx="160" cy="238" r="48" fill="url(#glow)"/>
    <path d="M160 214c2 7-4 9-4 16a7 7 0 0 0 14 0c7 8 10 14 10 24a20 20 0 0 1-40 0c0-11 8-15 8-27 0-7 7-10 12-13Z" fill="#fff" opacity=".94"/>
  </g>
  <g fill="#b5654a" opacity=".72">
    <circle cx="88" cy="138" r="7"/>
    <circle cx="248" cy="178" r="5"/>
    <circle cx="66" cy="376" r="5"/>
    <circle cx="244" cy="410" r="7"/>
  </g>
  <g font-family="-apple-system,BlinkMacSystemFont,'Segoe UI',system-ui,sans-serif" text-anchor="middle">
    <text x="160" y="400" fill="#191919" font-size="23" font-weight="800">How Sankkalp works</text>
    <text x="160" y="430" fill="#5c574d" font-size="15">5 simple steps</text>
    <g transform="translate(91 466)">
      <circle cx="0" cy="0" r="4" fill="#b5654a"/>
      <circle cx="34" cy="0" r="4" fill="#e4e0d5"/>
      <circle cx="68" cy="0" r="4" fill="#e4e0d5"/>
      <circle cx="102" cy="0" r="4" fill="#e4e0d5"/>
      <circle cx="136" cy="0" r="4" fill="#e4e0d5"/>
    </g>
  </g>
</svg>
